<?xml version="1.0" standalone="no"?>
<!DOCTYPE svg PUBLIC "-//W3C//DTD SVG 20010904//EN"
 "http://www.w3.org/TR/2001/REC-SVG-20010904/DTD/svg10.dtd">
<svg version="1.0" xmlns="http://www.w3.org/2000/svg"
 viewBox="0 0 2600.000000 2600.000000"
 preserveAspectRatio="xMidYMid meet">
<metadata>
Created by potrace 1.15, written by Peter Selinger 2001-2017
</metadata>
<g transform="translate(0.000000,2600.000000) scale(0.100000,-0.100000)"
fill="#fd4" stroke="none">
<path d="M6081 16384 c-371 -40 -791 -133 -1596 -354 -633 -173 -888 -236
-1148 -284 l-129 -24 -141 107 c-230 173 -394 260 -507 268 -114 8 -164 -50
-182 -214 -6 -54 -12 -99 -14 -101 -1 -2 -67 24 -145 58 -182 80 -302 120
-353 120 -47 0 -58 -6 -75 -38 -24 -45 22 -181 119 -354 l51 -89 -62 -69
c-139 -154 -249 -324 -310 -475 -59 -148 -71 -211 -79 -410 -7 -214 -10 -222
-161 -485 -52 -91 -103 -184 -112 -208 -42 -106 -11 -166 152 -296 60 -48 69
-60 75 -97 5 -34 18 -54 59 -95 53 -53 99 -74 163 -74 27 0 37 -9 78 -70 100
-146 208 -190 336 -137 70 29 121 65 240 167 148 128 181 147 282 165 48 8
185 45 305 81 120 36 322 97 448 136 580 176 848 221 1025 174 145 -39 361
-161 536 -302 111 -90 289 -273 312 -320 16 -34 16 -36 -3 -47 -47 -26 -293
-197 -663 -460 -448 -320 -529 -375 -591 -407 -70 -35 -163 -49 -321 -48 -152
2 -231 -10 -263 -40 -45 -40 -65 -106 -96 -308 -11 -72 -28 -150 -36 -172 -16
-38 -22 -43 -98 -72 -99 -37 -163 -74 -177 -100 -14 -26 -12 -90 5 -120 10
-19 12 -51 8 -130 -6 -124 11 -182 77 -265 21 -27 48 -66 59 -86 38 -68 130
-129 196 -129 9 0 39 -20 66 -44 92 -83 174 -87 329 -17 59 27 115 45 150 48
30 3 71 15 90 27 42 25 144 112 300 256 375 347 605 513 806 582 67 23 103 30
170 30 47 0 90 -4 95 -9 5 -5 0 -45 -15 -103 -37 -148 -50 -273 -43 -444 7
-167 22 -251 73 -404 83 -252 241 -496 471 -728 134 -135 373 -344 428 -373
119 -63 230 -24 325 114 15 22 46 55 69 73 23 18 51 52 62 74 29 57 23 151
-15 234 -22 47 -26 68 -21 104 11 89 -38 213 -141 355 -184 254 -219 306 -251
368 -44 89 -46 145 -7 225 49 99 255 293 629 593 341 273 447 361 526 436 l46
44 199 -99 c1095 -546 2368 -859 3784 -931 793 -41 1512 -10 2379 100 351 44
380 44 571 -7 316 -85 777 -318 1143 -576 250 -177 443 -293 662 -399 611
-295 1273 -422 2000 -386 121 6 265 11 320 12 l100 0 180 -74 c99 -40 242 -98
317 -128 134 -54 137 -56 153 -97 27 -66 28 -201 6 -506 -12 -156 -23 -284
-24 -285 -1 0 -32 -15 -68 -33 -78 -38 -176 -117 -240 -193 -50 -58 -203 -288
-238 -357 -43 -85 -24 -97 144 -88 l122 7 -5 -70 c-6 -95 10 -150 64 -210 68
-76 181 -108 309 -90 64 9 68 8 97 -16 68 -58 208 -11 341 114 74 69 141 163
152 210 3 15 18 34 33 43 47 28 133 119 178 188 116 180 195 477 225 844 15
189 6 675 -16 881 -42 393 -117 753 -187 888 -70 139 -219 209 -528 252 -266
36 -330 49 -449 86 -70 22 -254 71 -410 110 -156 38 -327 84 -380 101 -215 68
-341 161 -396 293 -135 318 -339 665 -760 1290 -111 165 -213 320 -226 345
-65 124 6 408 135 543 67 69 116 92 276 127 337 74 647 181 1765 610 1120 429
1563 580 2055 700 483 117 798 129 1129 46 281 -71 578 -226 841 -437 128
-102 299 -273 360 -359 79 -111 128 -158 204 -195 224 -106 433 -58 482 111
32 110 -1 249 -107 454 -253 488 -791 864 -1571 1099 -374 113 -749 174 -1063
174 l-180 0 -140 -41 c-155 -45 -670 -185 -1610 -437 -1434 -385 -2056 -564
-2670 -769 -495 -165 -722 -259 -923 -380 -60 -36 -144 -79 -187 -97 -711
-284 -2468 -86 -5062 571 -1387 352 -3165 890 -3728 1130 -112 48 -248 84
-370 99 -120 15 -440 12 -594 -5z"/>
</g>
</svg>
